<svg xmlns="http://www.w3.org/2000/svg" width="88" height="88" fill="none" viewBox="0 0 88 88">
  <g clip-path="url(#clip0)">
    <path fill="url(#paint0_linear)" fill-rule="evenodd" d="M77.282.235L7.567 35.398l-.234-.471L77.048-.236l.234.471z" clip-rule="evenodd"/>
    <path fill="url(#paint1_linear)" fill-rule="evenodd" d="M77.282 18.078L7.567 53.262l-.234-.471 69.715-35.185.234.472z" clip-rule="evenodd"/>
    <path fill="url(#paint2_linear)" fill-rule="evenodd" d="M77.282 35.004L7.567 70.194l-.234-.472 69.715-35.19.234.472z" clip-rule="evenodd"/>
    <path fill="url(#paint3_linear)" fill-rule="evenodd" d="M77.282 52.868L7.567 88.016l-.234-.472 69.715-35.147.234.471z" clip-rule="evenodd"/>
    <path fill="#1390E5" fill-rule="evenodd" d="M59.149 43.567L24.683 60.956v18.443l34.466-17.39V43.568z" clip-rule="evenodd"/>
    <path fill="#1180CB" fill-rule="evenodd" d="M24.683 26.179l34.466 17.389V62.01l-34.466-17.39V26.18z" clip-rule="evenodd"/>
    <path fill="#35A2EC" fill-rule="evenodd" d="M59.149 8.79L24.683 26.18v18.443l34.466-17.39V8.792z" clip-rule="evenodd"/>
  </g>
  <defs>
    <linearGradient id="paint0_linear" x1="77.165" x2="48.887" y1="-.001" y2="56.063" gradientUnits="userSpaceOnUse">
      <stop stop-color="#35A2EC" stop-opacity="0"/>
      <stop offset=".507" stop-color="#35A2EC"/>
      <stop offset="1" stop-color="#35A2EC" stop-opacity="0"/>
    </linearGradient>
    <linearGradient id="paint1_linear" x1="77.165" x2="48.86" y1="17.842" y2="73.925" gradientUnits="userSpaceOnUse">
      <stop stop-color="#35A2EC" stop-opacity="0"/>
      <stop offset=".507" stop-color="#35A2EC"/>
      <stop offset="1" stop-color="#35A2EC" stop-opacity="0"/>
    </linearGradient>
    <linearGradient id="paint2_linear" x1="77.165" x2="48.854" y1="34.768" y2="90.857" gradientUnits="userSpaceOnUse">
      <stop stop-color="#35A2EC" stop-opacity="0"/>
      <stop offset=".507" stop-color="#1390E5"/>
      <stop offset="1" stop-color="#35A2EC" stop-opacity="0"/>
    </linearGradient>
    <linearGradient id="paint3_linear" x1="77.165" x2="48.908" y1="52.633" y2="108.681" gradientUnits="userSpaceOnUse">
      <stop stop-color="#35A2EC" stop-opacity="0"/>
      <stop offset=".507" stop-color="#1390E5"/>
      <stop offset="1" stop-color="#35A2EC" stop-opacity="0"/>
    </linearGradient>
    <clipPath id="clip0">
      <path fill="#fff" d="M0 0h88v88H0z"/>
    </clipPath>
  </defs>
</svg>
